<?xml version="1.0" encoding="utf-8"?>
<!-- Generator: Adobe Illustrator 23.0.1, SVG Export Plug-In . SVG Version: 6.00 Build 0)  -->
<svg version="1.1" id="Layer_1" xmlns="http://www.w3.org/2000/svg" xmlns:xlink="http://www.w3.org/1999/xlink" x="0px" y="0px"
	 viewBox="0 0 512 512" style="enable-background:new 0 0 512 512;" xml:space="preserve">
<style type="text/css">
	.st0{fill:#E100BF;}
</style>
<path class="st0" d="M490.3,424.6L321.7,256L490.3,87.4c18.2-18.2,18.2-47.5,0-65.7c-18.2-18.2-47.5-18.2-65.7,0L256,190.3
	L87.4,21.7c-18.2-18.2-47.5-18.2-65.7,0s-18.2,47.5,0,65.7L190.3,256L21.7,424.6c-18.2,18.2-18.2,47.5,0,65.7
	c18.2,18.2,47.5,18.2,65.7,0L256,321.7l168.6,168.6c18.2,18.2,47.5,18.2,65.7,0C508.4,472.1,508.4,442.7,490.3,424.6z"/>
</svg>
