<svg xmlns="http://www.w3.org/2000/svg" width="19.973" height="20" viewBox="0 0 19.973 20">
  <path id="Full_screen_icon" data-name="Full screen icon" d="M1.634,3.773a.683.683,0,0,1-1.366,0V1.644A1.366,1.366,0,0,1,1.634.278H3.763a.683.683,0,1,1,0,1.366H2.6L6.87,5.914a.684.684,0,0,1,0,.966h0a.683.683,0,0,1-.967,0L1.634,2.61Zm17.24,0a.683.683,0,1,0,1.366,0V1.644A1.366,1.366,0,0,0,18.874.278H16.746a.683.683,0,1,0,0,1.366h1.162L13.638,5.914a.682.682,0,0,0,0,.966h0a.682.682,0,0,0,.966,0l4.27-4.269ZM1.634,16.783a.683.683,0,0,0-1.366,0v2.129a1.366,1.366,0,0,0,1.366,1.366H3.763a.683.683,0,1,0,0-1.366H2.6l4.27-4.269a.684.684,0,0,0,0-.966h0a.683.683,0,0,0-.967,0L1.634,17.946Zm17.24,1.163L14.6,13.676a.682.682,0,0,0-.966,0h0a.682.682,0,0,0,0,.966l4.269,4.269H16.746a.683.683,0,1,0,0,1.366h2.129a1.366,1.366,0,0,0,1.366-1.366V16.783a.683.683,0,1,0-1.366,0Z" transform="translate(-0.268 -0.277)" fill="#e1007f"/>
</svg>
