<svg xmlns="http://www.w3.org/2000/svg" width="16.508" height="20" viewBox="0 0 16.508 20">
  <path id="Notification_bell" data-name="Notification bell" d="M18.737,14.063l-1.4-2.183A9.5,9.5,0,0,1,15.96,5.25,4.243,4.243,0,0,0,11.77.336H9.937A4.243,4.243,0,0,0,5.747,5.25a9.5,9.5,0,0,1-1.381,6.63l-1.4,2.183a2.308,2.308,0,0,0,1.945,3.553H7.282a3.738,3.738,0,0,0,7.193,0h2.318a2.308,2.308,0,0,0,1.945-3.553Zm-7.858,4.912a2.377,2.377,0,0,1-2.141-1.359H13.02A2.378,2.378,0,0,1,10.879,18.975Zm6.746-3.212a.936.936,0,0,1-.832.493H4.915a.948.948,0,0,1-.8-1.459l1.4-2.183A10.859,10.859,0,0,0,7.091,5.034,2.882,2.882,0,0,1,9.937,1.7H11.77a2.882,2.882,0,0,1,2.846,3.338,10.859,10.859,0,0,0,1.579,7.579l1.4,2.183A.937.937,0,0,1,17.625,15.763Z" transform="translate(-2.6 -0.336)" fill="#e1007f"/>
</svg>
